<svg preserveAspectRatio="none" width="100%" height="100%" overflow="visible" style="display: block;" viewBox="0 0 18.1299 18.1234" fill="none" xmlns="http://www.w3.org/2000/svg">
<g id="Vector">
<path d="M16.6715 9.05843C16.6715 8.62132 16.5617 8.19102 16.3517 7.80762C16.1418 7.42427 15.8386 7.09987 15.4704 6.86442C15.2119 6.69911 15.085 6.38982 15.1522 6.0905C15.2485 5.66203 15.2346 5.21591 15.1123 4.79411C14.99 4.37228 14.7629 3.98813 14.4523 3.67757C14.1418 3.36708 13.7575 3.13983 13.3358 3.01758C12.9141 2.89543 12.4685 2.88226 12.0402 2.97852C11.7408 3.04583 11.4308 2.91807 11.2655 2.65951C11.03 2.29129 10.7056 1.98807 10.3223 1.77816C9.93886 1.56825 9.50856 1.45833 9.07145 1.45833C8.63436 1.45836 8.20402 1.56824 7.82064 1.77816C7.43729 1.98809 7.1129 2.29127 6.87744 2.65951C6.7122 2.91793 6.40282 3.04562 6.10352 2.97852C5.67573 2.88264 5.23066 2.89644 4.80957 3.01839C4.38852 3.14036 4.00497 3.36632 3.69466 3.67594C3.3843 3.98566 3.15671 4.36914 3.03385 4.79004C2.91109 5.21084 2.89654 5.65606 2.99154 6.08398C3.05809 6.38399 2.9297 6.6935 2.67008 6.85791C2.29896 7.09278 1.99324 7.418 1.78141 7.80273C1.56963 8.18743 1.45835 8.6193 1.45833 9.05843C1.45833 9.49754 1.56967 9.92945 1.78141 10.3141C1.99324 10.6989 2.29896 11.0241 2.67008 11.259C2.92971 11.4233 3.05802 11.7329 2.99154 12.0329C2.89651 12.4609 2.911 12.9067 3.03385 13.3276C3.15673 13.7484 3.38436 14.1313 3.69466 14.4409C4.00502 14.7506 4.38843 14.9773 4.80957 15.0993C5.23066 15.2212 5.67573 15.2342 6.10352 15.1383C6.40343 15.0711 6.71329 15.1997 6.87826 15.459C7.11339 15.8286 7.43828 16.1327 7.82227 16.3436C8.20627 16.5544 8.63744 16.665 9.07552 16.665C9.51362 16.665 9.94474 16.5544 10.3288 16.3436C10.7128 16.1328 11.0376 15.8286 11.2728 15.459L11.3411 15.3678C11.5147 15.1708 11.7847 15.0802 12.0467 15.1383C12.4746 15.2333 12.9199 15.2188 13.3407 15.096C13.7615 14.9732 14.1443 14.7455 14.4539 14.4352C14.7636 14.1249 14.9903 13.7414 15.1123 13.3203C15.2342 12.8993 15.2481 12.4541 15.1522 12.0264C15.0851 11.7271 15.212 11.4177 15.4704 11.2524C15.8386 11.017 16.1418 10.6926 16.3517 10.3092C16.5617 9.92582 16.6715 9.49557 16.6715 9.05843ZM18.1299 9.05843C18.1299 9.74038 17.9585 10.4118 17.631 11.0099C17.3824 11.464 17.0491 11.864 16.652 12.1916C16.7035 12.7059 16.6575 13.227 16.5129 13.7264C16.3226 14.3832 15.9696 14.9814 15.4867 15.4655C15.0035 15.9496 14.4057 16.3041 13.7492 16.4958C13.25 16.6415 12.7289 16.6886 12.2144 16.6382C11.8868 17.0372 11.4862 17.3722 11.0311 17.6221C10.4319 17.951 9.75906 18.1234 9.07552 18.1234C8.39212 18.1233 7.71983 17.951 7.12077 17.6221C6.66568 17.3722 6.26428 17.0379 5.93669 16.639C5.42308 16.6902 4.90297 16.6442 4.4043 16.4998C3.74729 16.3096 3.14856 15.956 2.66439 15.4728C2.18039 14.9898 1.82575 14.3926 1.63411 13.7362C1.48858 13.2376 1.44072 12.7169 1.49089 12.203C1.09045 11.8755 0.754713 11.4739 0.503743 11.0181C0.173294 10.4179 0 9.74358 0 9.05843C1.36674e-05 8.37331 0.173307 7.69896 0.503743 7.0988C0.754805 6.64288 1.09028 6.24062 1.49089 5.91309C1.44089 5.39958 1.48876 4.87968 1.63411 4.38151C1.82575 3.72497 2.18029 3.12717 2.66439 2.64404C3.14856 2.16089 3.74729 1.8073 4.4043 1.61702C4.90321 1.47259 5.42365 1.42657 5.9375 1.47786C6.26514 1.08057 6.66647 0.74761 7.12077 0.498861C7.71879 0.171483 8.38968 2.69346e-05 9.07145 0C9.7534 0 10.4248 0.171349 11.0229 0.498861C11.4767 0.747305 11.8764 1.08041 12.2038 1.47705C12.7192 1.4251 13.2414 1.472 13.7419 1.61702C14.3999 1.80775 14.999 2.16208 15.4834 2.64648C15.9679 3.13094 16.3221 3.72998 16.5129 4.38802C16.6578 4.888 16.7037 5.40952 16.652 5.92448C17.0494 6.25214 17.3823 6.65341 17.631 7.10775C17.9584 7.70581 18.1299 8.37662 18.1299 9.05843Z" fill="var(--fill-0, #9949FF)"/>
<path d="M11.0557 6.87698C11.3405 6.59222 11.8029 6.59222 12.0876 6.87698C12.3724 7.16174 12.3724 7.62412 12.0876 7.90888L8.75431 11.2422C8.46956 11.527 8.00717 11.527 7.72241 11.2422L6.05575 9.57555L6.0061 9.52021C5.77229 9.23381 5.7887 8.81069 6.05575 8.54365C6.32279 8.2766 6.74591 8.26019 7.03231 8.494L7.08765 8.54365L8.23836 9.69436L11.0557 6.87698Z" fill="var(--fill-0, #9949FF)"/>
</g>
</svg>
